<mxfile host="app.diagrams.net" modified="2023-06-06T09:13:25.625Z" agent="Mozilla/5.0 (Macintosh; Intel Mac OS X 10.15; rv:109.0) Gecko/20100101 Firefox/113.0" etag="XhNtffs_ftTrbsZIxfkh" version="21.3.7" type="device">
  <diagram name="Pagina-1" id="-6sXGLotGN9ZcCLTFh_m">
    <mxGraphModel dx="256" dy="164" grid="1" gridSize="10" guides="1" tooltips="1" connect="1" arrows="1" fold="1" page="1" pageScale="1" pageWidth="827" pageHeight="1169" math="0" shadow="0">
      <root>
        <mxCell id="0" />
        <mxCell id="1" parent="0" />
        <mxCell id="OnRaduhbo4fJ7MF6GFyW-1" value="" style="image;aspect=fixed;html=1;points=[];align=center;fontSize=12;image=img/lib/azure2/networking/Local_Network_Gateways.svg;" vertex="1" parent="1">
          <mxGeometry x="357" y="330" width="92" height="92" as="geometry" />
        </mxCell>
        <mxCell id="OnRaduhbo4fJ7MF6GFyW-2" value="" style="image;aspect=fixed;html=1;points=[];align=center;fontSize=12;image=img/lib/azure2/networking/IP_Groups.svg;" vertex="1" parent="1">
          <mxGeometry x="150" y="654" width="67" height="52" as="geometry" />
        </mxCell>
        <mxCell id="OnRaduhbo4fJ7MF6GFyW-3" value="" style="image;aspect=fixed;html=1;points=[];align=center;fontSize=12;image=img/lib/azure2/networking/IP_Groups.svg;" vertex="1" parent="1">
          <mxGeometry x="316" y="667" width="67" height="52" as="geometry" />
        </mxCell>
        <mxCell id="OnRaduhbo4fJ7MF6GFyW-4" value="" style="image;aspect=fixed;html=1;points=[];align=center;fontSize=12;image=img/lib/azure2/networking/IP_Groups.svg;" vertex="1" parent="1">
          <mxGeometry x="451" y="667" width="67" height="52" as="geometry" />
        </mxCell>
        <mxCell id="OnRaduhbo4fJ7MF6GFyW-5" value="" style="image;aspect=fixed;html=1;points=[];align=center;fontSize=12;image=img/lib/azure2/networking/IP_Groups.svg;" vertex="1" parent="1">
          <mxGeometry x="590" y="654" width="67" height="52" as="geometry" />
        </mxCell>
        <mxCell id="OnRaduhbo4fJ7MF6GFyW-6" value="" style="image;aspect=fixed;html=1;points=[];align=center;fontSize=12;image=img/lib/azure2/networking/Load_Balancers.svg;direction=north;" vertex="1" parent="1">
          <mxGeometry x="301" y="172" width="56" height="56" as="geometry" />
        </mxCell>
        <mxCell id="OnRaduhbo4fJ7MF6GFyW-7" value="" style="image;aspect=fixed;html=1;points=[];align=center;fontSize=12;image=img/lib/azure2/networking/Firewalls.svg;" vertex="1" parent="1">
          <mxGeometry x="10" y="75" width="71" height="60" as="geometry" />
        </mxCell>
        <mxCell id="OnRaduhbo4fJ7MF6GFyW-8" value="" style="image;aspect=fixed;html=1;points=[];align=center;fontSize=12;image=img/lib/azure2/networking/Firewalls.svg;" vertex="1" parent="1">
          <mxGeometry x="25" y="182" width="41" height="34.65" as="geometry" />
        </mxCell>
        <mxCell id="OnRaduhbo4fJ7MF6GFyW-10" value="" style="image;sketch=0;aspect=fixed;html=1;points=[];align=center;fontSize=12;image=img/lib/mscae/VPN_Gateway.svg;" vertex="1" parent="1">
          <mxGeometry x="530" y="350" width="45" height="50" as="geometry" />
        </mxCell>
        <mxCell id="OnRaduhbo4fJ7MF6GFyW-11" value="" style="image;aspect=fixed;html=1;points=[];align=center;fontSize=12;image=img/lib/azure2/networking/IP_Groups.svg;" vertex="1" parent="1">
          <mxGeometry x="673" y="349" width="67" height="52" as="geometry" />
        </mxCell>
        <mxCell id="OnRaduhbo4fJ7MF6GFyW-12" value="" style="image;sketch=0;aspect=fixed;html=1;points=[];align=center;fontSize=12;image=img/lib/mscae/VPN_Gateway.svg;" vertex="1" parent="1">
          <mxGeometry x="386.5" y="20" width="35" height="38.89" as="geometry" />
        </mxCell>
        <mxCell id="OnRaduhbo4fJ7MF6GFyW-13" value="" style="image;aspect=fixed;html=1;points=[];align=center;fontSize=12;image=img/lib/azure2/networking/DNS_Private_Resolver.svg;" vertex="1" parent="1">
          <mxGeometry x="213" y="624" width="40" height="35.29" as="geometry" />
        </mxCell>
        <mxCell id="OnRaduhbo4fJ7MF6GFyW-14" value="" style="sketch=0;points=[[0.015,0.015,0],[0.985,0.015,0],[0.985,0.985,0],[0.015,0.985,0],[0.25,0,0],[0.5,0,0],[0.75,0,0],[1,0.25,0],[1,0.5,0],[1,0.75,0],[0.75,1,0],[0.5,1,0],[0.25,1,0],[0,0.75,0],[0,0.5,0],[0,0.25,0]];verticalLabelPosition=bottom;html=1;verticalAlign=top;aspect=fixed;align=center;pointerEvents=1;shape=mxgraph.cisco19.rect;prIcon=l2_switch;fillColor=#FAFAFA;strokeColor=#005073;" vertex="1" parent="1">
          <mxGeometry x="378" y="500" width="50" height="50" as="geometry" />
        </mxCell>
        <mxCell id="OnRaduhbo4fJ7MF6GFyW-15" value="" style="image;aspect=fixed;html=1;points=[];align=center;fontSize=12;image=img/lib/azure2/networking/Local_Network_Gateways.svg;" vertex="1" parent="1">
          <mxGeometry x="186" y="174" width="52" height="52" as="geometry" />
        </mxCell>
        <mxCell id="OnRaduhbo4fJ7MF6GFyW-16" value="" style="image;aspect=fixed;html=1;points=[];align=center;fontSize=12;image=img/lib/azure2/networking/NAT.svg;direction=north;" vertex="1" parent="1">
          <mxGeometry x="130" y="81" width="50" height="50" as="geometry" />
        </mxCell>
        <mxCell id="OnRaduhbo4fJ7MF6GFyW-17" value="" style="image;aspect=fixed;html=1;points=[];align=center;fontSize=12;image=img/lib/azure2/networking/NAT.svg;direction=north;" vertex="1" parent="1">
          <mxGeometry x="200" y="26" width="50" height="50" as="geometry" />
        </mxCell>
        <mxCell id="OnRaduhbo4fJ7MF6GFyW-18" value="" style="image;aspect=fixed;html=1;points=[];align=center;fontSize=12;image=img/lib/azure2/networking/NAT.svg;direction=north;" vertex="1" parent="1">
          <mxGeometry x="116" y="175" width="50" height="50" as="geometry" />
        </mxCell>
        <mxCell id="OnRaduhbo4fJ7MF6GFyW-19" value="" style="image;aspect=fixed;html=1;points=[];align=center;fontSize=12;image=img/lib/azure2/networking/Route_Filters.svg;direction=north;" vertex="1" parent="1">
          <mxGeometry x="381" y="153" width="44" height="71" as="geometry" />
        </mxCell>
        <mxCell id="OnRaduhbo4fJ7MF6GFyW-20" value="" style="shape=link;html=1;rounded=0;exitX=0.5;exitY=0.996;exitDx=0;exitDy=0;exitPerimeter=0;entryX=0.5;entryY=0;entryDx=0;entryDy=0;entryPerimeter=0;" edge="1" parent="1" source="OnRaduhbo4fJ7MF6GFyW-1" target="OnRaduhbo4fJ7MF6GFyW-14">
          <mxGeometry width="100" relative="1" as="geometry">
            <mxPoint x="407" y="430" as="sourcePoint" />
            <mxPoint x="507" y="430" as="targetPoint" />
          </mxGeometry>
        </mxCell>
        <mxCell id="OnRaduhbo4fJ7MF6GFyW-21" value="" style="shape=link;html=1;rounded=0;exitX=1;exitY=0.489;exitDx=0;exitDy=0;exitPerimeter=0;" edge="1" parent="1" source="OnRaduhbo4fJ7MF6GFyW-1" target="OnRaduhbo4fJ7MF6GFyW-10">
          <mxGeometry width="100" relative="1" as="geometry">
            <mxPoint x="410" y="440" as="sourcePoint" />
            <mxPoint x="530" y="375" as="targetPoint" />
          </mxGeometry>
        </mxCell>
        <mxCell id="OnRaduhbo4fJ7MF6GFyW-22" value="" style="shape=link;html=1;rounded=0;exitX=1.007;exitY=0.5;exitDx=0;exitDy=0;exitPerimeter=0;" edge="1" parent="1" source="OnRaduhbo4fJ7MF6GFyW-10" target="OnRaduhbo4fJ7MF6GFyW-11">
          <mxGeometry width="100" relative="1" as="geometry">
            <mxPoint x="410" y="440" as="sourcePoint" />
            <mxPoint x="510" y="440" as="targetPoint" />
          </mxGeometry>
        </mxCell>
        <mxCell id="OnRaduhbo4fJ7MF6GFyW-23" value="" style="shape=link;html=1;rounded=0;entryX=0;entryY=0.5;entryDx=0;entryDy=0;entryPerimeter=0;exitX=0.527;exitY=-0.006;exitDx=0;exitDy=0;exitPerimeter=0;" edge="1" parent="1" source="OnRaduhbo4fJ7MF6GFyW-2" target="OnRaduhbo4fJ7MF6GFyW-14">
          <mxGeometry width="100" relative="1" as="geometry">
            <mxPoint x="310" y="560" as="sourcePoint" />
            <mxPoint x="410" y="560" as="targetPoint" />
            <Array as="points">
              <mxPoint x="185" y="525" />
            </Array>
          </mxGeometry>
        </mxCell>
        <mxCell id="OnRaduhbo4fJ7MF6GFyW-24" value="" style="shape=link;html=1;rounded=0;entryX=0;entryY=0.75;entryDx=0;entryDy=0;entryPerimeter=0;exitX=0.473;exitY=-0.006;exitDx=0;exitDy=0;exitPerimeter=0;" edge="1" parent="1" source="OnRaduhbo4fJ7MF6GFyW-3" target="OnRaduhbo4fJ7MF6GFyW-14">
          <mxGeometry width="100" relative="1" as="geometry">
            <mxPoint x="310" y="560" as="sourcePoint" />
            <mxPoint x="410" y="560" as="targetPoint" />
            <Array as="points">
              <mxPoint x="347" y="540" />
            </Array>
          </mxGeometry>
        </mxCell>
        <mxCell id="OnRaduhbo4fJ7MF6GFyW-25" value="" style="endArrow=none;dashed=1;html=1;rounded=0;exitX=0.995;exitY=0.545;exitDx=0;exitDy=0;exitPerimeter=0;" edge="1" parent="1" source="OnRaduhbo4fJ7MF6GFyW-2" target="OnRaduhbo4fJ7MF6GFyW-13">
          <mxGeometry width="50" height="50" relative="1" as="geometry">
            <mxPoint x="330" y="580" as="sourcePoint" />
            <mxPoint x="380" y="530" as="targetPoint" />
            <Array as="points">
              <mxPoint x="233" y="682" />
            </Array>
          </mxGeometry>
        </mxCell>
        <mxCell id="OnRaduhbo4fJ7MF6GFyW-26" value="" style="endArrow=none;dashed=1;html=1;rounded=0;exitX=0.525;exitY=0.028;exitDx=0;exitDy=0;exitPerimeter=0;entryX=0;entryY=0.5;entryDx=0;entryDy=0;entryPerimeter=0;" edge="1" parent="1" source="OnRaduhbo4fJ7MF6GFyW-13" target="OnRaduhbo4fJ7MF6GFyW-14">
          <mxGeometry width="50" height="50" relative="1" as="geometry">
            <mxPoint x="330" y="580" as="sourcePoint" />
            <mxPoint x="380" y="530" as="targetPoint" />
            <Array as="points">
              <mxPoint x="234" y="525" />
            </Array>
          </mxGeometry>
        </mxCell>
        <mxCell id="OnRaduhbo4fJ7MF6GFyW-27" value="" style="shape=link;html=1;rounded=0;exitX=1;exitY=0.75;exitDx=0;exitDy=0;exitPerimeter=0;entryX=0.159;entryY=0;entryDx=0;entryDy=0;entryPerimeter=0;" edge="1" parent="1" source="OnRaduhbo4fJ7MF6GFyW-14" target="OnRaduhbo4fJ7MF6GFyW-4">
          <mxGeometry width="100" relative="1" as="geometry">
            <mxPoint x="310" y="560" as="sourcePoint" />
            <mxPoint x="480" y="660" as="targetPoint" />
            <Array as="points">
              <mxPoint x="460" y="540" />
            </Array>
          </mxGeometry>
        </mxCell>
        <mxCell id="OnRaduhbo4fJ7MF6GFyW-28" value="" style="shape=link;html=1;rounded=0;entryX=0.323;entryY=0.006;entryDx=0;entryDy=0;entryPerimeter=0;exitX=1;exitY=0.5;exitDx=0;exitDy=0;exitPerimeter=0;" edge="1" parent="1" source="OnRaduhbo4fJ7MF6GFyW-14" target="OnRaduhbo4fJ7MF6GFyW-5">
          <mxGeometry width="100" relative="1" as="geometry">
            <mxPoint x="430" y="525" as="sourcePoint" />
            <mxPoint x="610.3090000000002" y="654.3119999999999" as="targetPoint" />
            <Array as="points">
              <mxPoint x="610" y="525" />
            </Array>
          </mxGeometry>
        </mxCell>
        <mxCell id="OnRaduhbo4fJ7MF6GFyW-30" value="" style="shape=link;html=1;rounded=0;entryX=-0.009;entryY=0.508;entryDx=0;entryDy=0;entryPerimeter=0;exitX=0.507;exitY=0.004;exitDx=0;exitDy=0;exitPerimeter=0;" edge="1" parent="1" source="OnRaduhbo4fJ7MF6GFyW-1" target="OnRaduhbo4fJ7MF6GFyW-19">
          <mxGeometry width="100" relative="1" as="geometry">
            <mxPoint x="427" y="350" as="sourcePoint" />
            <mxPoint x="547" y="270" as="targetPoint" />
          </mxGeometry>
        </mxCell>
        <mxCell id="OnRaduhbo4fJ7MF6GFyW-31" value="" style="shape=link;html=1;rounded=0;dashed=1;dashPattern=1 1;" edge="1" parent="1" source="OnRaduhbo4fJ7MF6GFyW-15">
          <mxGeometry width="100" relative="1" as="geometry">
            <mxPoint x="237.32400000000007" y="188.668" as="sourcePoint" />
            <mxPoint x="300" y="200" as="targetPoint" />
          </mxGeometry>
        </mxCell>
        <mxCell id="OnRaduhbo4fJ7MF6GFyW-32" value="" style="shape=link;html=1;rounded=0;entryX=0.268;entryY=0.008;entryDx=0;entryDy=0;entryPerimeter=0;exitX=0.411;exitY=0.958;exitDx=0;exitDy=0;exitPerimeter=0;" edge="1" parent="1">
          <mxGeometry width="100" relative="1" as="geometry">
            <mxPoint x="354.6479999999999" y="198.98400000000004" as="sourcePoint" />
            <mxPoint x="381.3520000000001" y="198.9720000000001" as="targetPoint" />
          </mxGeometry>
        </mxCell>
        <mxCell id="OnRaduhbo4fJ7MF6GFyW-33" value="" style="shape=link;html=1;rounded=0;entryX=1;entryY=0.523;entryDx=0;entryDy=0;entryPerimeter=0;exitX=0.49;exitY=1.071;exitDx=0;exitDy=0;exitPerimeter=0;" edge="1" parent="1" source="OnRaduhbo4fJ7MF6GFyW-12" target="OnRaduhbo4fJ7MF6GFyW-19">
          <mxGeometry width="100" relative="1" as="geometry">
            <mxPoint x="390" y="340" as="sourcePoint" />
            <mxPoint x="490" y="340" as="targetPoint" />
          </mxGeometry>
        </mxCell>
        <mxCell id="OnRaduhbo4fJ7MF6GFyW-35" value="" style="shape=link;html=1;rounded=0;entryX=-0.033;entryY=0.737;entryDx=0;entryDy=0;entryPerimeter=0;exitX=0.54;exitY=1.04;exitDx=0;exitDy=0;exitPerimeter=0;" edge="1" parent="1" source="OnRaduhbo4fJ7MF6GFyW-17" target="OnRaduhbo4fJ7MF6GFyW-12">
          <mxGeometry width="100" relative="1" as="geometry">
            <mxPoint x="230" y="190" as="sourcePoint" />
            <mxPoint x="330" y="190" as="targetPoint" />
          </mxGeometry>
        </mxCell>
        <mxCell id="OnRaduhbo4fJ7MF6GFyW-36" value="" style="shape=link;html=1;rounded=0;entryX=1.006;entryY=0.518;entryDx=0;entryDy=0;entryPerimeter=0;exitX=0.48;exitY=0.987;exitDx=0;exitDy=0;exitPerimeter=0;" edge="1" parent="1" source="OnRaduhbo4fJ7MF6GFyW-16" target="OnRaduhbo4fJ7MF6GFyW-6">
          <mxGeometry width="100" relative="1" as="geometry">
            <mxPoint x="230" y="190" as="sourcePoint" />
            <mxPoint x="330" y="190" as="targetPoint" />
            <Array as="points">
              <mxPoint x="330" y="107" />
            </Array>
          </mxGeometry>
        </mxCell>
        <mxCell id="OnRaduhbo4fJ7MF6GFyW-37" value="" style="shape=link;html=1;rounded=0;entryX=0;entryY=0.519;entryDx=0;entryDy=0;entryPerimeter=0;dashed=1;dashPattern=1 1;" edge="1" parent="1">
          <mxGeometry width="100" relative="1" as="geometry">
            <mxPoint x="167" y="200" as="sourcePoint" />
            <mxPoint x="186" y="199.98799999999994" as="targetPoint" />
          </mxGeometry>
        </mxCell>
        <mxCell id="OnRaduhbo4fJ7MF6GFyW-38" value="" style="shape=link;html=1;rounded=0;entryX=0.46;entryY=-0.01;entryDx=0;entryDy=0;entryPerimeter=0;exitX=0.986;exitY=0.55;exitDx=0;exitDy=0;exitPerimeter=0;" edge="1" parent="1" source="OnRaduhbo4fJ7MF6GFyW-7" target="OnRaduhbo4fJ7MF6GFyW-16">
          <mxGeometry width="100" relative="1" as="geometry">
            <mxPoint x="110" y="190" as="sourcePoint" />
            <mxPoint x="210" y="190" as="targetPoint" />
          </mxGeometry>
        </mxCell>
        <mxCell id="OnRaduhbo4fJ7MF6GFyW-39" value="" style="shape=link;html=1;rounded=0;entryX=0.48;entryY=-0.02;entryDx=0;entryDy=0;entryPerimeter=0;exitX=0.963;exitY=0.548;exitDx=0;exitDy=0;exitPerimeter=0;dashed=1;dashPattern=1 1;" edge="1" parent="1" source="OnRaduhbo4fJ7MF6GFyW-8" target="OnRaduhbo4fJ7MF6GFyW-18">
          <mxGeometry width="100" relative="1" as="geometry">
            <mxPoint x="110" y="190" as="sourcePoint" />
            <mxPoint x="210" y="190" as="targetPoint" />
          </mxGeometry>
        </mxCell>
        <mxCell id="OnRaduhbo4fJ7MF6GFyW-40" value="" style="shape=link;html=1;rounded=0;entryX=0.44;entryY=-0.03;entryDx=0;entryDy=0;entryPerimeter=0;exitX=0.493;exitY=0.017;exitDx=0;exitDy=0;exitPerimeter=0;" edge="1" parent="1" source="OnRaduhbo4fJ7MF6GFyW-7" target="OnRaduhbo4fJ7MF6GFyW-17">
          <mxGeometry width="100" relative="1" as="geometry">
            <mxPoint x="110" y="100" as="sourcePoint" />
            <mxPoint x="210" y="100" as="targetPoint" />
            <Array as="points">
              <mxPoint x="45" y="54" />
            </Array>
          </mxGeometry>
        </mxCell>
        <mxCell id="OnRaduhbo4fJ7MF6GFyW-41" value="Edge Router 4" style="text;strokeColor=none;align=center;fillColor=none;html=1;verticalAlign=middle;whiteSpace=wrap;rounded=0;" vertex="1" parent="1">
          <mxGeometry x="421.5" y="314" width="88.5" height="50" as="geometry" />
        </mxCell>
        <mxCell id="OnRaduhbo4fJ7MF6GFyW-42" value="OpenVPN Server" style="text;strokeColor=none;align=center;fillColor=none;html=1;verticalAlign=middle;whiteSpace=wrap;rounded=0;" vertex="1" parent="1">
          <mxGeometry x="522.5" y="410" width="60" height="30" as="geometry" />
        </mxCell>
        <mxCell id="OnRaduhbo4fJ7MF6GFyW-43" value="10.0.10.0/24" style="text;strokeColor=none;align=center;fillColor=none;html=1;verticalAlign=middle;whiteSpace=wrap;rounded=0;" vertex="1" parent="1">
          <mxGeometry x="690" y="401" width="60" height="30" as="geometry" />
        </mxCell>
        <mxCell id="OnRaduhbo4fJ7MF6GFyW-44" value="OpenVPN Clients" style="text;strokeColor=none;align=center;fillColor=none;html=1;verticalAlign=middle;whiteSpace=wrap;rounded=0;" vertex="1" parent="1">
          <mxGeometry x="690" y="310" width="60" height="30" as="geometry" />
        </mxCell>
        <mxCell id="OnRaduhbo4fJ7MF6GFyW-45" value="OpenVPN Llink provided by UNS" style="text;strokeColor=none;align=center;fillColor=none;html=1;verticalAlign=middle;whiteSpace=wrap;rounded=0;" vertex="1" parent="1">
          <mxGeometry x="440" y="28.889999999999986" width="60" height="30" as="geometry" />
        </mxCell>
        <mxCell id="OnRaduhbo4fJ7MF6GFyW-46" value="SNAT" style="text;strokeColor=none;align=center;fillColor=none;html=1;verticalAlign=middle;whiteSpace=wrap;rounded=0;" vertex="1" parent="1">
          <mxGeometry x="157" y="10" width="60" height="30" as="geometry" />
        </mxCell>
        <mxCell id="OnRaduhbo4fJ7MF6GFyW-47" value="SNAT" style="text;strokeColor=none;align=center;fillColor=none;html=1;verticalAlign=middle;whiteSpace=wrap;rounded=0;" vertex="1" parent="1">
          <mxGeometry x="90" y="115" width="60" height="30" as="geometry" />
        </mxCell>
        <mxCell id="OnRaduhbo4fJ7MF6GFyW-48" value="SNAT" style="text;strokeColor=none;align=center;fillColor=none;html=1;verticalAlign=middle;whiteSpace=wrap;rounded=0;" vertex="1" parent="1">
          <mxGeometry x="70" y="165" width="60" height="30" as="geometry" />
        </mxCell>
        <mxCell id="OnRaduhbo4fJ7MF6GFyW-49" value="Teltonika RUT240" style="text;strokeColor=none;align=center;fillColor=none;html=1;verticalAlign=middle;whiteSpace=wrap;rounded=0;" vertex="1" parent="1">
          <mxGeometry x="180" y="142" width="60" height="30" as="geometry" />
        </mxCell>
        <mxCell id="OnRaduhbo4fJ7MF6GFyW-50" value="Load Balancing (Failover)" style="text;strokeColor=none;align=center;fillColor=none;html=1;verticalAlign=middle;whiteSpace=wrap;rounded=0;" vertex="1" parent="1">
          <mxGeometry x="301" y="240" width="60" height="30" as="geometry" />
        </mxCell>
        <mxCell id="OnRaduhbo4fJ7MF6GFyW-52" value="WAN ISP (PPPoE)" style="text;strokeColor=none;align=center;fillColor=none;html=1;verticalAlign=middle;whiteSpace=wrap;rounded=0;" vertex="1" parent="1">
          <mxGeometry x="66" y="58.889999999999986" width="60" height="30" as="geometry" />
        </mxCell>
        <mxCell id="OnRaduhbo4fJ7MF6GFyW-53" value="MWAN (4G)" style="text;strokeColor=none;align=center;fillColor=none;html=1;verticalAlign=middle;whiteSpace=wrap;rounded=0;" vertex="1" parent="1">
          <mxGeometry x="40" y="228" width="60" height="30" as="geometry" />
        </mxCell>
        <mxCell id="OnRaduhbo4fJ7MF6GFyW-54" value="DNS (dnsmasq/dnscrypt)" style="text;strokeColor=none;align=center;fillColor=none;html=1;verticalAlign=middle;whiteSpace=wrap;rounded=0;rotation=90;" vertex="1" parent="1">
          <mxGeometry x="241" y="624" width="60" height="30" as="geometry" />
        </mxCell>
        <mxCell id="OnRaduhbo4fJ7MF6GFyW-55" value="DHCP" style="text;strokeColor=none;align=center;fillColor=none;html=1;verticalAlign=middle;whiteSpace=wrap;rounded=0;" vertex="1" parent="1">
          <mxGeometry x="421" y="397" width="60" height="30" as="geometry" />
        </mxCell>
        <mxCell id="OnRaduhbo4fJ7MF6GFyW-56" value="192.168.100.0/24" style="text;strokeColor=none;align=center;fillColor=none;html=1;verticalAlign=middle;whiteSpace=wrap;rounded=0;" vertex="1" parent="1">
          <mxGeometry x="157" y="719" width="60" height="30" as="geometry" />
        </mxCell>
        <mxCell id="OnRaduhbo4fJ7MF6GFyW-57" value="192.168.101.0/24" style="text;strokeColor=none;align=center;fillColor=none;html=1;verticalAlign=middle;whiteSpace=wrap;rounded=0;" vertex="1" parent="1">
          <mxGeometry x="326.5" y="728" width="60" height="30" as="geometry" />
        </mxCell>
        <mxCell id="OnRaduhbo4fJ7MF6GFyW-58" value="&lt;div&gt;192.168.102.0/24&lt;/div&gt;" style="text;strokeColor=none;align=center;fillColor=none;html=1;verticalAlign=middle;whiteSpace=wrap;rounded=0;" vertex="1" parent="1">
          <mxGeometry x="470" y="728" width="60" height="30" as="geometry" />
        </mxCell>
        <mxCell id="OnRaduhbo4fJ7MF6GFyW-59" value="Edge Switch 8 150W" style="text;strokeColor=none;align=center;fillColor=none;html=1;verticalAlign=middle;whiteSpace=wrap;rounded=0;" vertex="1" parent="1">
          <mxGeometry x="275" y="472" width="123.5" height="40" as="geometry" />
        </mxCell>
        <mxCell id="OnRaduhbo4fJ7MF6GFyW-60" value="PBR" style="text;strokeColor=none;align=center;fillColor=none;html=1;verticalAlign=middle;whiteSpace=wrap;rounded=0;" vertex="1" parent="1">
          <mxGeometry x="428" y="185" width="60" height="30" as="geometry" />
        </mxCell>
        <mxCell id="OnRaduhbo4fJ7MF6GFyW-61" value="&lt;div&gt;192.168.103.0/24&lt;/div&gt;" style="text;strokeColor=none;align=center;fillColor=none;html=1;verticalAlign=middle;whiteSpace=wrap;rounded=0;" vertex="1" parent="1">
          <mxGeometry x="610" y="719" width="60" height="30" as="geometry" />
        </mxCell>
        <mxCell id="OnRaduhbo4fJ7MF6GFyW-62" value="Home" style="text;strokeColor=none;align=center;fillColor=none;html=1;verticalAlign=middle;whiteSpace=wrap;rounded=0;rotation=270;" vertex="1" parent="1">
          <mxGeometry x="111" y="585" width="60" height="30" as="geometry" />
        </mxCell>
        <mxCell id="OnRaduhbo4fJ7MF6GFyW-63" value="Guest/IoT" style="text;strokeColor=none;align=center;fillColor=none;html=1;verticalAlign=middle;whiteSpace=wrap;rounded=0;rotation=270;" vertex="1" parent="1">
          <mxGeometry x="299" y="594" width="60" height="30" as="geometry" />
        </mxCell>
        <mxCell id="OnRaduhbo4fJ7MF6GFyW-64" value="Lab" style="text;strokeColor=none;align=center;fillColor=none;html=1;verticalAlign=middle;whiteSpace=wrap;rounded=0;rotation=270;" vertex="1" parent="1">
          <mxGeometry x="410" y="594" width="60" height="30" as="geometry" />
        </mxCell>
        <mxCell id="OnRaduhbo4fJ7MF6GFyW-65" value="VPN&#39;ed" style="text;strokeColor=none;align=center;fillColor=none;html=1;verticalAlign=middle;whiteSpace=wrap;rounded=0;rotation=270;" vertex="1" parent="1">
          <mxGeometry x="560" y="585" width="60" height="30" as="geometry" />
        </mxCell>
        <mxCell id="OnRaduhbo4fJ7MF6GFyW-66" value="VLAN ID 1" style="text;strokeColor=none;align=center;fillColor=none;html=1;verticalAlign=middle;whiteSpace=wrap;rounded=0;rotation=270;" vertex="1" parent="1">
          <mxGeometry x="140" y="585" width="60" height="30" as="geometry" />
        </mxCell>
        <mxCell id="OnRaduhbo4fJ7MF6GFyW-67" value="VLAN ID 103" style="text;strokeColor=none;align=center;fillColor=none;html=1;verticalAlign=middle;whiteSpace=wrap;rounded=0;rotation=90;" vertex="1" parent="1">
          <mxGeometry x="600" y="585" width="80" height="30" as="geometry" />
        </mxCell>
        <mxCell id="OnRaduhbo4fJ7MF6GFyW-68" value="&lt;div&gt;VLAN ID 102&lt;/div&gt;" style="text;strokeColor=none;align=center;fillColor=none;html=1;verticalAlign=middle;whiteSpace=wrap;rounded=0;rotation=90;" vertex="1" parent="1">
          <mxGeometry x="442.5" y="594" width="80" height="30" as="geometry" />
        </mxCell>
        <mxCell id="OnRaduhbo4fJ7MF6GFyW-69" value="&lt;div&gt;VLAN ID 101&lt;/div&gt;" style="text;strokeColor=none;align=center;fillColor=none;html=1;verticalAlign=middle;whiteSpace=wrap;rounded=0;rotation=90;" vertex="1" parent="1">
          <mxGeometry x="334" y="594" width="80" height="30" as="geometry" />
        </mxCell>
        <mxCell id="OnRaduhbo4fJ7MF6GFyW-70" value="" style="html=1;strokeWidth=1;shadow=0;dashed=0;shape=mxgraph.ios7.misc.wifi;fillColor=#007AFF;strokeColor=none;buttonText=;strokeColor2=#222222;fontColor=#222222;fontSize=8;verticalLabelPosition=bottom;verticalAlign=top;align=center;sketch=0;" vertex="1" parent="1">
          <mxGeometry x="200" y="693" width="29" height="26" as="geometry" />
        </mxCell>
        <mxCell id="OnRaduhbo4fJ7MF6GFyW-71" value="" style="html=1;strokeWidth=1;shadow=0;dashed=0;shape=mxgraph.ios7.misc.wifi;fillColor=#007AFF;strokeColor=none;buttonText=;strokeColor2=#222222;fontColor=#222222;fontSize=8;verticalLabelPosition=bottom;verticalAlign=top;align=center;sketch=0;" vertex="1" parent="1">
          <mxGeometry x="373.5" y="700" width="29" height="26" as="geometry" />
        </mxCell>
        <mxCell id="OnRaduhbo4fJ7MF6GFyW-72" value="" style="html=1;strokeWidth=1;shadow=0;dashed=0;shape=mxgraph.ios7.misc.wifi;fillColor=#007AFF;strokeColor=none;buttonText=;strokeColor2=#222222;fontColor=#222222;fontSize=8;verticalLabelPosition=bottom;verticalAlign=top;align=center;sketch=0;" vertex="1" parent="1">
          <mxGeometry x="641" y="693" width="29" height="26" as="geometry" />
        </mxCell>
      </root>
    </mxGraphModel>
  </diagram>
</mxfile>
